<svg version="1.1" xmlns="http://www.w3.org/2000/svg" xmlns:xlink="http://www.w3.org/1999/xlink" preserveAspectRatio="xMidYMid meet" viewBox="0 0 108 40" width="108" height="40"><defs><text id="cRpY5Cbwj" x="293.68" y="309.24" font-size="14" font-family="Content" font-weight="normal" font-style="normal" letter-spacing="0" alignment-baseline="before-edge" transform="matrix(1 0 0 1 -239.26562499999997 -308.4715056457457)" style="line-height:100%" xml:space="preserve" dominant-baseline="text-before-edge"><tspan x="293.68" dy="0em" alignment-baseline="before-edge" dominant-baseline="text-before-edge" text-anchor="middle">HOPE COTTAGE</tspan></text>
<path d="" id="d4Ku1XaKj"></path><path d="M53.08 29.74C55.08 32.29 54.93 35.74 52.75 37.45C50.57 39.16 47.18 38.49 45.18 35.94C43.19 33.39 43.33 29.94 42.47 24.34C47.7 26.52 51.08 27.19 53.08 29.74Z" id="cOojnenhN"></path><path d="M60.92 30.55C60.92 33.79 58.12 36.42 54.67 36.42C51.22 36.42 48.43 33.79 48.43 30.55C48.43 27.31 51.22 24.69 54.67 19.75C58.12 24.69 60.92 27.31 60.92 30.55Z" id="a7bHji4Fg"></path><path d="M64.11 35.91C62.18 38.51 58.81 39.27 56.58 37.61C54.36 35.95 54.13 32.5 56.07 29.91C58.01 27.31 61.38 26.55 66.56 24.25C65.82 29.87 66.05 33.32 64.11 35.91Z" id="dqRr1RlXO"></path><path d="M41.71 31.08L2.09 31.08" id="akf2DIm2r"></path><path d="M67.61 31.08L106.74 31.08" id="cejBsDOVk"></path></defs><g><g id="a3Da3jVLHL"><use xlink:href="#cRpY5Cbwj" opacity="1" fill="#0a2195" fill-opacity="1"></use></g><g><g><use xlink:href="#d4Ku1XaKj" opacity="1" fill-opacity="0" stroke="#a68930" stroke-width="1" stroke-opacity="1"></use></g></g><g><use xlink:href="#cOojnenhN" opacity="1" fill="#c1683b" fill-opacity="0"></use><g><use xlink:href="#cOojnenhN" opacity="1" fill-opacity="0" stroke="#96791e" stroke-width="1" stroke-opacity="1"></use></g></g><g><use xlink:href="#a7bHji4Fg" opacity="1" fill="#c1683b" fill-opacity="0"></use><g><use xlink:href="#a7bHji4Fg" opacity="1" fill-opacity="0" stroke="#96791e" stroke-width="1" stroke-opacity="1"></use></g></g><g><use xlink:href="#dqRr1RlXO" opacity="1" fill="#c1683b" fill-opacity="0"></use><g><use xlink:href="#dqRr1RlXO" opacity="1" fill-opacity="0" stroke="#96791e" stroke-width="1" stroke-opacity="1"></use></g></g><g><use xlink:href="#akf2DIm2r" opacity="1" fill="#96791e" fill-opacity="1"></use><g><use xlink:href="#akf2DIm2r" opacity="1" fill-opacity="0" stroke="#96791e" stroke-width="1" stroke-opacity="1"></use></g></g><g><use xlink:href="#cejBsDOVk" opacity="1" fill="#96791e" fill-opacity="1"></use><g><use xlink:href="#cejBsDOVk" opacity="1" fill-opacity="0" stroke="#96791e" stroke-width="1" stroke-opacity="1"></use></g></g></g></svg>
